<svg width="395" height="63" viewBox="0 0 395 63" fill="none" xmlns="http://www.w3.org/2000/svg">
<g clip-path="url(#clip0_1_2)">
<mask id="mask0_1_2" style="mask-type:luminance" maskUnits="userSpaceOnUse" x="0" y="0" width="71" height="63">
<path d="M70.8827 0H0V62.9335H70.8827V0Z" fill="white"/>
</mask>
<g mask="url(#mask0_1_2)">
<path d="M6.22923 6.28391C10.9674 2.24999 17.247 -0.561278 23.5903 0.287093C29.8921 1.05506 35.4065 4.76738 39.7288 9.22271C41.0627 10.5775 42.2916 12.0316 43.4051 13.5727C42.768 15.0794 42.0173 16.5354 41.1594 17.9282C35.6782 26.9692 27.2971 34.1415 17.6185 38.3778L17.3135 38.5137L16.9586 38.4527C13.4864 37.6864 10.2023 36.2339 7.2994 34.1803C2.80525 31.0197 0.0161597 26.0238 0.14092 20.4844C0.196369 15.2168 2.32284 9.88533 6.24032 6.28391H6.22923ZM7.11364 7.32635C3.6259 10.6866 1.74063 15.6631 1.78499 20.4789C1.75449 25.4249 4.38 29.8276 8.45551 32.5307C11.1596 34.3048 14.1864 35.5295 17.3634 36.1349L16.7036 36.2098C26.1299 32.4115 34.4195 25.7271 39.9617 17.1797C40.7588 15.9707 41.4747 14.7102 42.1048 13.4063L42.1658 14.0135C37.2724 7.26259 29.6093 1.22418 20.926 1.36835C15.7526 1.48479 11.0062 3.99386 7.1275 7.32635H7.11364Z" fill="url(#paint0_linear_1_2)"/>
<path d="M63.7687 7.32635C59.8873 3.99941 55.1436 1.48479 49.973 1.36835C41.3008 1.21587 33.6155 7.2709 28.7305 14.0135L28.7915 13.4063C29.0687 14.0329 29.4291 14.69 29.7868 15.3166C35.2624 24.7623 44.0788 32.1398 54.1844 36.2125L53.5245 36.1377C56.7015 35.5322 59.7283 34.3076 62.4324 32.5335C66.5079 29.8304 69.1334 25.4277 69.1029 20.4816C69.1473 15.6659 67.262 10.6866 63.7743 7.32913L63.7687 7.32635ZM64.6531 6.28391C68.5595 9.8881 70.6832 15.2112 70.7525 20.4844C70.8773 26.0293 68.091 31.0197 63.5941 34.1803C60.5981 36.3114 57.187 37.7878 53.5827 38.5137C45.1093 34.876 37.7456 29.0673 32.2348 21.6738C30.3773 19.1287 28.7027 16.5032 27.4745 13.5727C28.0623 12.741 28.6972 11.9647 29.3487 11.1884C33.9732 5.83755 40.0698 1.17982 47.2893 0.287093C53.6326 -0.561278 59.9123 2.24999 64.6504 6.28391H64.6531Z" fill="url(#paint1_linear_1_2)"/>
<path d="M7.11366 55.6197C10.9951 58.9467 15.7388 61.4613 20.9122 61.5777C29.5816 61.7274 37.2696 55.6752 42.1519 48.9298L42.1048 49.5203C41.8275 48.8938 41.4671 48.2367 41.1095 47.6101C35.6339 38.1644 26.8175 30.7869 16.7119 26.7169L17.3717 26.7918C14.194 27.3948 11.1668 28.6196 8.46384 30.3959C4.38833 33.0991 1.76282 37.5017 1.79332 42.445C1.74896 47.2608 3.63423 52.2401 7.12197 55.6003L7.11366 55.6197ZM6.22924 56.6594C2.32286 53.0552 0.199157 47.7349 0.129846 42.4589C0.00508562 36.914 2.7914 31.9236 7.28832 28.7657C10.2852 26.6338 13.6971 25.1564 17.3024 24.4296C25.7692 28.0721 33.1266 33.8814 38.6337 41.2723C40.4912 43.8146 42.1658 46.4429 43.394 49.3734C42.8062 50.2051 42.1713 50.9786 41.5198 51.7549C36.8954 57.1058 30.7987 61.7635 23.5793 62.659C17.2359 63.4907 10.9563 60.6933 6.21815 56.6594H6.22924Z" fill="url(#paint2_linear_1_2)"/>
<path d="M64.6532 56.6483C59.915 60.6822 53.6354 63.4935 47.2921 62.6479C40.9903 61.8771 35.4759 58.1676 31.1536 53.7123C29.8218 52.3556 28.593 50.9016 27.4773 49.3623C28.1144 47.8547 28.8651 46.3977 29.723 45.004C35.2042 35.963 43.5853 28.7934 53.2639 24.5544L53.5717 24.4185L53.9238 24.4795C57.3966 25.2455 60.6809 26.6992 63.583 28.7546C68.0799 31.9125 70.8662 36.9084 70.7415 42.4478C70.686 47.7154 68.5595 53.0496 64.6421 56.6483H64.6532ZM63.7688 55.6197C67.2565 52.2595 69.1418 47.2829 69.0974 42.4644C69.1279 37.5184 66.5024 33.1185 62.4269 30.4153C59.7232 28.6403 56.6963 27.4156 53.519 26.8111L54.1788 26.7391C44.7525 30.5373 36.4656 37.2189 30.9207 45.7692C30.1316 46.9718 29.4222 48.2249 28.797 49.5203L28.736 48.9131C33.6183 55.6585 41.3091 61.7108 49.9786 61.5611C55.1353 61.4419 59.8901 58.9467 63.7688 55.6197Z" fill="url(#paint3_linear_1_2)"/>
</g>
<mask id="mask1_1_2" style="mask-type:luminance" maskUnits="userSpaceOnUse" x="83" y="22" width="312" height="19">
<path d="M394.999 22.0267H83.4694V40.9067H394.999V22.0267Z" fill="white"/>
</mask>
<g mask="url(#mask1_1_2)">
<path d="M87.6894 32.9367L86.9494 34.8967H96.0194L95.2894 32.9367H87.6894ZM88.5494 33.5767L91.4394 26.7567L94.3794 33.6767L94.5794 34.1667L97.0794 40.0467H99.4094L91.4394 22.0267L83.4694 40.0467H85.7994L88.3494 34.0167L88.5494 33.5767ZM111.789 31.5867H109.459L115.339 40.0467H117.919L111.789 31.5867ZM108.479 22.8867H106.389V40.0467H108.479V22.8867ZM107.549 22.8867V24.7267H111.049C111.783 24.7267 112.433 24.8567 112.999 25.1167C113.566 25.3767 114.006 25.7533 114.319 26.2467C114.639 26.7333 114.799 27.33 114.799 28.0367C114.799 28.7367 114.639 29.3333 114.319 29.8267C114.006 30.3133 113.566 30.69 112.999 30.9567C112.433 31.2167 111.783 31.3467 111.049 31.3467H107.549V33.1867H111.049C112.163 33.1867 113.156 32.9767 114.029 32.5567C114.903 32.1433 115.596 31.5467 116.109 30.7667C116.629 29.9933 116.889 29.0833 116.889 28.0367C116.889 26.9767 116.629 26.06 116.109 25.2867C115.596 24.52 114.903 23.93 114.029 23.5167C113.156 23.0967 112.163 22.8867 111.049 22.8867H107.549ZM123.309 22.8867V24.8467H127.719V40.0467H129.809V24.8467H134.219V22.8867H123.309ZM142.479 38.0867V40.0467H151.129V38.0867H142.479ZM142.479 22.8867V24.8467H151.129V22.8867H142.479ZM142.479 29.7467V31.7167H150.639V29.7467H142.479ZM143.409 22.8867H141.329V40.0467H143.409V22.8867ZM160.819 40.0467L162.089 28.4567L167.679 38.4567L173.269 28.4567L174.539 40.0467H176.629L174.539 22.0267L167.679 34.4567L160.819 22.0267L158.729 40.0467H160.819ZM185.699 31.4667C185.699 30.1733 185.979 29.02 186.539 28.0067C187.106 26.9933 187.879 26.1933 188.859 25.6067C189.839 25.02 190.949 24.7267 192.189 24.7267C193.449 24.7267 194.566 25.02 195.539 25.6067C196.513 26.1933 197.283 26.9933 197.849 28.0067C198.409 29.02 198.689 30.1733 198.689 31.4667C198.689 32.76 198.409 33.9133 197.849 34.9267C197.283 35.94 196.513 36.74 195.539 37.3267C194.566 37.9133 193.449 38.2067 192.189 38.2067C190.949 38.2067 189.839 37.9133 188.859 37.3267C187.879 36.74 187.106 35.94 186.539 34.9267C185.979 33.9133 185.699 32.76 185.699 31.4667ZM183.489 31.4667C183.489 32.7067 183.706 33.8667 184.139 34.9467C184.573 36.0267 185.183 36.9633 185.969 37.7567C186.749 38.55 187.673 39.17 188.739 39.6167C189.799 40.07 190.949 40.2967 192.189 40.2967C193.449 40.2967 194.606 40.07 195.659 39.6167C196.713 39.17 197.633 38.55 198.419 37.7567C199.206 36.9633 199.816 36.0267 200.249 34.9467C200.683 33.8667 200.899 32.7067 200.899 31.4667C200.899 30.2067 200.683 29.0433 200.249 27.9767C199.816 26.9033 199.206 25.97 198.419 25.1767C197.633 24.3833 196.713 23.7633 195.659 23.3167C194.606 22.87 193.449 22.6467 192.189 22.6467C190.949 22.6467 189.799 22.87 188.739 23.3167C187.673 23.7633 186.749 24.3833 185.969 25.1767C185.183 25.97 184.573 26.9033 184.139 27.9767C183.706 29.0433 183.489 30.2067 183.489 31.4667ZM219.769 22.8867L214.139 36.1767L208.499 22.8867H206.169L214.139 40.9067L222.099 22.8867H219.769ZM229.019 32.9367L228.279 34.8967H237.349L236.619 32.9367H229.019ZM229.869 33.5767L232.769 26.7567L235.709 33.6767L235.899 34.1667L238.399 40.0467H240.729L232.769 22.0267L224.799 40.0467H227.129L229.679 34.0167L229.869 33.5767ZM249.069 22.8867H246.739L245.509 30.2367H246.859L249.069 22.8867ZM258.039 34.8467L256.369 35.9767C256.749 36.73 257.236 37.4367 257.829 38.0967C258.429 38.7567 259.126 39.29 259.919 39.6967C260.713 40.0967 261.573 40.2967 262.499 40.2967C263.186 40.2967 263.846 40.18 264.479 39.9467C265.106 39.72 265.669 39.3933 266.169 38.9667C266.669 38.54 267.059 38.0267 267.339 37.4267C267.626 36.82 267.769 36.14 267.769 35.3867C267.769 34.6067 267.633 33.9333 267.359 33.3667C267.079 32.8 266.723 32.3167 266.289 31.9167C265.856 31.5167 265.386 31.1867 264.879 30.9267C264.373 30.6667 263.889 30.4533 263.429 30.2867C262.436 29.9467 261.649 29.6 261.069 29.2467C260.489 28.8933 260.076 28.5167 259.829 28.1167C259.583 27.7167 259.459 27.28 259.459 26.8067C259.459 26.2533 259.673 25.7533 260.099 25.3067C260.526 24.8533 261.203 24.6267 262.129 24.6267C262.803 24.6267 263.373 24.7567 263.839 25.0167C264.306 25.2833 264.703 25.62 265.029 26.0267C265.356 26.4333 265.626 26.85 265.839 27.2767L267.629 26.2467C267.349 25.64 266.963 25.0633 266.469 24.5167C265.983 23.97 265.393 23.52 264.699 23.1667C263.999 22.82 263.186 22.6467 262.259 22.6467C261.293 22.6467 260.433 22.8367 259.679 23.2167C258.933 23.6033 258.346 24.13 257.919 24.7967C257.493 25.47 257.279 26.23 257.279 27.0767C257.279 27.8633 257.429 28.5267 257.729 29.0667C258.036 29.6067 258.426 30.06 258.899 30.4267C259.373 30.7933 259.869 31.0967 260.389 31.3367C260.916 31.57 261.393 31.76 261.819 31.9067C262.473 32.1333 263.089 32.39 263.669 32.6767C264.249 32.9633 264.719 33.3367 265.079 33.7967C265.439 34.2567 265.619 34.87 265.619 35.6367C265.619 36.4167 265.339 37.06 264.779 37.5667C264.226 38.0733 263.493 38.3267 262.579 38.3267C261.893 38.3267 261.279 38.18 260.739 37.8867C260.199 37.5933 259.713 37.1867 259.279 36.6667C258.846 36.14 258.433 35.5333 258.039 34.8467ZM289.639 29.8267V30.9767H292.409C293.436 30.9767 294.329 30.83 295.089 30.5367C295.849 30.2433 296.443 29.81 296.869 29.2367C297.296 28.6633 297.509 27.9767 297.509 27.1767C297.509 26.1967 297.296 25.3933 296.869 24.7667C296.443 24.1333 295.849 23.6633 295.089 23.3567C294.329 23.0433 293.436 22.8867 292.409 22.8867H287.999V40.0467H292.659C293.766 40.0467 294.756 39.8633 295.629 39.4967C296.509 39.13 297.206 38.5733 297.719 37.8267C298.233 37.0867 298.489 36.1533 298.489 35.0267C298.489 34.24 298.343 33.56 298.049 32.9867C297.756 32.4133 297.343 31.9433 296.809 31.5767C296.276 31.21 295.659 30.9367 294.959 30.7567C294.259 30.5767 293.493 30.4867 292.659 30.4867H289.639V31.6367H292.659C293.213 31.6367 293.719 31.7067 294.179 31.8467C294.633 31.9867 295.026 32.1967 295.359 32.4767C295.699 32.75 295.959 33.0933 296.139 33.5067C296.319 33.9133 296.409 34.3767 296.409 34.8967C296.409 35.6033 296.249 36.2 295.929 36.6867C295.609 37.18 295.166 37.5567 294.599 37.8167C294.039 38.0767 293.393 38.2067 292.659 38.2067H290.079V24.7267H292.409C293.276 24.7267 293.996 24.95 294.569 25.3967C295.143 25.85 295.429 26.4833 295.429 27.2967C295.429 27.8367 295.296 28.2967 295.029 28.6767C294.769 29.05 294.409 29.3333 293.949 29.5267C293.496 29.7267 292.983 29.8267 292.409 29.8267H289.639ZM307.729 38.0867V40.0467H316.389V38.0867H307.729ZM307.729 22.8867V24.8467H316.389V22.8867H307.729ZM307.729 29.7467V31.7167H315.899V29.7467H307.729ZM308.659 22.8867H306.579V40.0467H308.659V22.8867ZM327.339 32.9367L326.609 34.8967H335.679L334.939 32.9367H327.339ZM328.199 33.5767L331.089 26.7567L334.039 33.6767L334.229 34.1667L336.729 40.0467H339.059L331.089 22.0267L323.129 40.0467H325.459L328.009 34.0167L328.199 33.5767ZM348.009 22.8867H345.929V34.4067C345.929 35.26 346.063 36.0467 346.329 36.7667C346.596 37.48 346.989 38.1 347.509 38.6267C348.023 39.1467 348.639 39.5533 349.359 39.8467C350.079 40.1467 350.879 40.2967 351.759 40.2967C352.639 40.2967 353.439 40.1467 354.159 39.8467C354.879 39.5533 355.496 39.1467 356.009 38.6267C356.529 38.1 356.923 37.48 357.189 36.7667C357.456 36.0467 357.589 35.26 357.589 34.4067V22.8867H355.509V34.4067C355.509 35.5867 355.189 36.5367 354.549 37.2567C353.916 37.97 352.986 38.3267 351.759 38.3267C350.533 38.3267 349.603 37.97 348.969 37.2567C348.329 36.5367 348.009 35.5867 348.009 34.4067V22.8867ZM364.579 22.8867V24.8467H368.989V40.0467H371.079V24.8467H375.489V22.8867H364.579ZM394.999 22.8867H392.679L388.239 30.8267L383.829 22.8867H381.499L387.209 32.6667V40.0467H389.289V32.6467L394.999 22.8867Z" fill="#F2EAB8"/>
</g>
</g>
<defs>
<linearGradient id="paint0_linear_1_2" x1="0.00784236" y1="2.21118" x2="49.3243" y2="42.8387" gradientUnits="userSpaceOnUse">
<stop stop-color="#FFDD9E"/>
<stop offset="1" stop-color="#DD9200"/>
</linearGradient>
<linearGradient id="paint1_linear_1_2" x1="27.4773" y1="19.3255" x2="70.747" y2="19.3255" gradientUnits="userSpaceOnUse">
<stop stop-color="#FFDD9E"/>
<stop offset="1" stop-color="#DD9200"/>
</linearGradient>
<linearGradient id="paint2_linear_1_2" x1="0.135391" y1="43.6095" x2="43.4051" y2="43.6095" gradientUnits="userSpaceOnUse">
<stop stop-color="#FFDD9E"/>
<stop offset="1" stop-color="#DD9200"/>
</linearGradient>
<linearGradient id="paint3_linear_1_2" x1="30.4522" y1="66.1107" x2="84.2294" y2="13.5061" gradientUnits="userSpaceOnUse">
<stop stop-color="#FFDD9E"/>
<stop offset="1" stop-color="#DD9200"/>
</linearGradient>
<clipPath id="clip0_1_2">
<rect width="395" height="63" fill="white"/>
</clipPath>
</defs>
</svg>
