<?xml version="1.0" encoding="utf-8"?>
<svg xmlns="http://www.w3.org/2000/svg" viewBox="0.1258 0.1356 70.6307 62.6702" width="70.6307px" height="62.6702px">
  <defs>
    <clipPath id="clip0_1_2">
      <rect width="395" height="63" fill="white"/>
    </clipPath>
    <linearGradient id="paint0_linear_1_2" x1="0.00784236" y1="2.21118" x2="49.3243" y2="42.8387" gradientUnits="userSpaceOnUse">
      <stop stop-color="#FFDD9E"/>
      <stop offset="1" stop-color="#DD9200"/>
    </linearGradient>
    <linearGradient id="paint1_linear_1_2" x1="27.4773" y1="19.3255" x2="70.747" y2="19.3255" gradientUnits="userSpaceOnUse">
      <stop stop-color="#FFDD9E"/>
      <stop offset="1" stop-color="#DD9200"/>
    </linearGradient>
    <linearGradient id="paint2_linear_1_2" x1="0.135391" y1="43.6095" x2="43.4051" y2="43.6095" gradientUnits="userSpaceOnUse">
      <stop stop-color="#FFDD9E"/>
      <stop offset="1" stop-color="#DD9200"/>
    </linearGradient>
    <linearGradient id="paint3_linear_1_2" x1="30.4522" y1="66.1107" x2="84.2294" y2="13.5061" gradientUnits="userSpaceOnUse">
      <stop stop-color="#FFDD9E"/>
      <stop offset="1" stop-color="#DD9200"/>
    </linearGradient>
  </defs>
  <mask id="mask0_1_2" style="mask-type:luminance" maskUnits="userSpaceOnUse" x="0" y="0" width="71" height="63" clip-path="url(#clip0_1_2)">
    <path d="M70.8827 0H0V62.9335H70.8827V0Z" fill="white"/>
  </mask>
  <g mask="url(#mask0_1_2)" clip-path="url(#clip0_1_2)" transform="matrix(1, 0, 0, 1, 3.552713678800501e-15, 0)">
    <path d="M6.22923 6.28391C10.9674 2.24999 17.247 -0.561278 23.5903 0.287093C29.8921 1.05506 35.4065 4.76738 39.7288 9.22271C41.0627 10.5775 42.2916 12.0316 43.4051 13.5727C42.768 15.0794 42.0173 16.5354 41.1594 17.9282C35.6782 26.9692 27.2971 34.1415 17.6185 38.3778L17.3135 38.5137L16.9586 38.4527C13.4864 37.6864 10.2023 36.2339 7.2994 34.1803C2.80525 31.0197 0.0161597 26.0238 0.14092 20.4844C0.196369 15.2168 2.32284 9.88533 6.24032 6.28391H6.22923ZM7.11364 7.32635C3.6259 10.6866 1.74063 15.6631 1.78499 20.4789C1.75449 25.4249 4.38 29.8276 8.45551 32.5307C11.1596 34.3048 14.1864 35.5295 17.3634 36.1349L16.7036 36.2098C26.1299 32.4115 34.4195 25.7271 39.9617 17.1797C40.7588 15.9707 41.4747 14.7102 42.1048 13.4063L42.1658 14.0135C37.2724 7.26259 29.6093 1.22418 20.926 1.36835C15.7526 1.48479 11.0062 3.99386 7.1275 7.32635H7.11364Z" fill="url(#paint0_linear_1_2)"/>
    <path d="M63.7687 7.32635C59.8873 3.99941 55.1436 1.48479 49.973 1.36835C41.3008 1.21587 33.6155 7.2709 28.7305 14.0135L28.7915 13.4063C29.0687 14.0329 29.4291 14.69 29.7868 15.3166C35.2624 24.7623 44.0788 32.1398 54.1844 36.2125L53.5245 36.1377C56.7015 35.5322 59.7283 34.3076 62.4324 32.5335C66.5079 29.8304 69.1334 25.4277 69.1029 20.4816C69.1473 15.6659 67.262 10.6866 63.7743 7.32913L63.7687 7.32635ZM64.6531 6.28391C68.5595 9.8881 70.6832 15.2112 70.7525 20.4844C70.8773 26.0293 68.091 31.0197 63.5941 34.1803C60.5981 36.3114 57.187 37.7878 53.5827 38.5137C45.1093 34.876 37.7456 29.0673 32.2348 21.6738C30.3773 19.1287 28.7027 16.5032 27.4745 13.5727C28.0623 12.741 28.6972 11.9647 29.3487 11.1884C33.9732 5.83755 40.0698 1.17982 47.2893 0.287093C53.6326 -0.561278 59.9123 2.24999 64.6504 6.28391H64.6531Z" fill="url(#paint1_linear_1_2)"/>
    <path d="M7.11366 55.6197C10.9951 58.9467 15.7388 61.4613 20.9122 61.5777C29.5816 61.7274 37.2696 55.6752 42.1519 48.9298L42.1048 49.5203C41.8275 48.8938 41.4671 48.2367 41.1095 47.6101C35.6339 38.1644 26.8175 30.7869 16.7119 26.7169L17.3717 26.7918C14.194 27.3948 11.1668 28.6196 8.46384 30.3959C4.38833 33.0991 1.76282 37.5017 1.79332 42.445C1.74896 47.2608 3.63423 52.2401 7.12197 55.6003L7.11366 55.6197ZM6.22924 56.6594C2.32286 53.0552 0.199157 47.7349 0.129846 42.4589C0.00508562 36.914 2.7914 31.9236 7.28832 28.7657C10.2852 26.6338 13.6971 25.1564 17.3024 24.4296C25.7692 28.0721 33.1266 33.8814 38.6337 41.2723C40.4912 43.8146 42.1658 46.4429 43.394 49.3734C42.8062 50.2051 42.1713 50.9786 41.5198 51.7549C36.8954 57.1058 30.7987 61.7635 23.5793 62.659C17.2359 63.4907 10.9563 60.6933 6.21815 56.6594H6.22924Z" fill="url(#paint2_linear_1_2)"/>
    <path d="M64.6532 56.6483C59.915 60.6822 53.6354 63.4935 47.2921 62.6479C40.9903 61.8771 35.4759 58.1676 31.1536 53.7123C29.8218 52.3556 28.593 50.9016 27.4773 49.3623C28.1144 47.8547 28.8651 46.3977 29.723 45.004C35.2042 35.963 43.5853 28.7934 53.2639 24.5544L53.5717 24.4185L53.9238 24.4795C57.3966 25.2455 60.6809 26.6992 63.583 28.7546C68.0799 31.9125 70.8662 36.9084 70.7415 42.4478C70.686 47.7154 68.5595 53.0496 64.6421 56.6483H64.6532ZM63.7688 55.6197C67.2565 52.2595 69.1418 47.2829 69.0974 42.4644C69.1279 37.5184 66.5024 33.1185 62.4269 30.4153C59.7232 28.6403 56.6963 27.4156 53.519 26.8111L54.1788 26.7391C44.7525 30.5373 36.4656 37.2189 30.9207 45.7692C30.1316 46.9718 29.4222 48.2249 28.797 49.5203L28.736 48.9131C33.6183 55.6585 41.3091 61.7108 49.9786 61.5611C55.1353 61.4419 59.8901 58.9467 63.7688 55.6197Z" fill="url(#paint3_linear_1_2)"/>
  </g>
</svg>